<svg version="1.1" viewBox="0.0 0.0 960.0 960.0" fill="none" stroke="none" stroke-linecap="square" stroke-miterlimit="10" xmlns:xlink="http://www.w3.org/1999/xlink" xmlns="http://www.w3.org/2000/svg"><clipPath id="p.0"><path d="m0 0l960.0 0l0 960.0l-960.0 0l0 -960.0z" clip-rule="nonzero"/></clipPath><g clip-path="url(#p.0)"><path fill="#000000" fill-opacity="0.0" d="m0 0l960.0 0l0 960.0l-960.0 0z" fill-rule="evenodd"/><path fill="#389826" fill-opacity="0.6335" d="m368.4567 145.37007l223.08664 0l0 223.08662l-223.08664 0z" fill-rule="evenodd"/><path stroke="#389826" stroke-width="4.0" stroke-linejoin="round" stroke-linecap="butt" d="m368.4567 145.37007l223.08664 0l0 223.08662l-223.08664 0z" fill-rule="evenodd"/><path fill="#4063d8" fill-opacity="0.6335" d="m594.58795 370.74014l223.08661 0l0 223.08664l-223.08661 0z" fill-rule="evenodd"/><path stroke="#4063d8" stroke-width="4.0" stroke-linejoin="round" stroke-linecap="butt" d="m594.58795 370.74014l223.08661 0l0 223.08664l-223.08661 0z" fill-rule="evenodd"/><path fill="#9558b2" fill-opacity="0.638" d="m594.58795 597.9239l223.08661 0l0 223.08661l-223.08661 0z" fill-rule="evenodd"/><path stroke="#9558b2" stroke-width="4.0" stroke-linejoin="round" stroke-linecap="butt" d="m594.58795 597.9239l223.08661 0l0 223.08661l-223.08661 0z" fill-rule="evenodd"/><path fill="#cb3c33" fill-opacity="0.6335" d="m367.38846 597.9239l223.08658 0l0 223.08661l-223.08658 0z" fill-rule="evenodd"/><path stroke="#cb3c33" stroke-width="4.0" stroke-linejoin="round" stroke-linecap="butt" d="m367.38846 597.9239l223.08658 0l0 223.08661l-223.08658 0z" fill-rule="evenodd"/><path fill="#389826" fill-opacity="0.7285" d="m140.18898 597.9239l223.08662 0l0 223.08661l-223.08662 0z" fill-rule="evenodd"/><path stroke="#389826" stroke-width="4.0" stroke-linejoin="round" stroke-linecap="butt" d="m140.18898 597.9239l223.08662 0l0 223.08661l-223.08662 0z" fill-rule="evenodd"/></g></svg>